<svg width="96" height="17" viewBox="0 0 96 17" fill="none" xmlns="http://www.w3.org/2000/svg">
<path d="M6.16475 3.90774C4.33658 3.90774 2.12578 4.15717 1.02037 4.48974V7.35819C2.29584 7.02562 3.5713 6.65147 5.10186 6.65147C7.3977 6.65147 8.92826 7.1919 8.92826 8.89634V9.35363C7.3977 8.8132 6.12223 8.73006 5.14438 8.73006C2.80602 8.73006 0 9.60306 0 12.4299C0 14.6748 1.78565 16.4208 4.88928 16.4208C7.1426 16.4208 8.63065 15.5894 9.35341 15.0905L9.69353 16.1714H12.5421V8.85477C12.5421 5.11332 9.77857 3.90774 6.16475 3.90774ZM3.74136 12.5131C3.74136 11.5985 4.46413 11.0581 5.95217 11.0581C7.22764 11.0581 8.20549 11.2244 8.92826 11.5569V13.0119C8.16298 13.3861 7.1426 13.8434 6.0372 13.8434C4.50664 13.8434 3.74136 13.3029 3.74136 12.5131ZM20.9601 3.90774C17.4739 3.90774 14.9229 4.94703 14.9229 7.56605C14.9229 9.1042 15.4756 10.4761 18.1966 11.0165L20.8751 11.5569C22.5332 11.8895 22.7458 12.2221 22.7458 12.5962C22.7458 13.2614 22.1931 13.5939 19.9823 13.5939C18.2817 13.5939 16.0283 13.0535 15.178 12.7625V15.6725C16.1559 16.0051 18.4517 16.4208 20.0673 16.4208C24.6165 16.4208 26.3171 14.758 26.3171 12.4715C26.3171 10.6839 25.2967 9.51992 22.7033 8.97949L20.2374 8.43905C18.7493 8.10648 18.4092 8.10648 18.4092 7.56605C18.4092 6.77619 20.1098 6.69304 21.2152 6.69304C22.4907 6.69304 23.8512 6.9009 25.5518 7.48291V4.65603C24.4889 4.24031 22.9159 3.90774 20.9601 3.90774ZM36.4358 4.15717H32.6094V1.08086H29.5483L29.1231 4.15717H26.9123V6.98405H28.9956V12.2636C28.9956 15.4231 31.1213 16.4208 33.6723 16.4208C34.8202 16.4208 35.5004 16.3377 36.4358 16.0051V13.1782C35.7981 13.3861 34.9052 13.5108 34.4376 13.5108C32.9495 13.5108 32.6094 12.8041 32.6094 11.6401V6.98405H36.4358V4.15717ZM50.8485 11.4738V9.81092C50.8485 6.0279 48.7228 3.90774 44.6838 3.90774C41.155 3.90774 37.8813 5.86161 37.8813 10.0604C37.8813 14.5085 40.7299 16.4208 45.1089 16.4208C46.8946 16.4208 48.7653 16.0051 50.1683 15.5894V12.8041C48.8503 13.2198 46.9371 13.6355 45.194 13.6355C43.8335 13.6355 41.8353 13.2614 41.5802 11.4738H50.8485ZM41.5802 9.27049C41.7927 7.44133 42.9407 6.65147 44.7263 6.65147C46.2569 6.65147 47.1072 7.64919 47.1072 9.27049H41.5802ZM56.1205 4.15717H53.2294V16.1714H56.8432V8.48063C57.9911 7.81548 59.4792 7.23348 61.4349 7.27505V3.90774C59.3091 3.94931 57.7786 4.65603 56.5456 5.48746L56.1205 4.15717ZM73.7644 16.1714V0H70.1506V16.1714H73.7644ZM78.4836 4.15717C76.9956 5.82004 75.6776 7.60762 74.0195 10.1435C76.4004 12.5547 77.9734 14.467 79.1213 16.1714H83.543C83.0753 15.5478 80.2268 11.8895 78.0159 9.93564C79.6315 7.85705 81.0345 6.19418 82.8202 4.15717H78.4836ZM95.9575 6.44361V4.15717H84.4358V6.98405H91.2383L84.2657 13.8434V16.1714H96V13.3445H88.9424L95.9575 6.44361Z" fill="white"/>
<path d="M65.2177 16.3804C64.4524 16.3804 63.8147 16.131 63.262 15.6321C62.7518 15.1333 62.4967 14.4681 62.4967 13.7198C62.4967 12.93 62.7518 12.3064 63.262 11.8491C63.7722 11.3503 64.4524 11.1008 65.2177 11.1008C66.0255 11.1008 66.6632 11.3503 67.1734 11.8491C67.6836 12.3064 67.9387 12.93 67.9387 13.7198C67.9387 14.4681 67.6836 15.1333 67.1734 15.6321C66.6632 16.131 65.983 16.3804 65.2177 16.3804Z" fill="#F7D117"/>
</svg>
